<!--?xml version="1.0" encoding="utf-8"?-->
<!-- Generator: Adobe Illustrator 18.1.1, SVG Export Plug-In . SVG Version: 6.00 Build 0)  -->

<svg version="1.1" id="_x32_" xmlns="http://www.w3.org/2000/svg" xmlns:xlink="http://www.w3.org/1999/xlink" x="0px" y="0px" viewBox="0 0 512 512" style="width: 256px; height: 256px; opacity: 1;" xml:space="preserve">
<style type="text/css">
	.st0{fill:#4B4B4B;}
</style>
<g>
	<path class="st0" d="M385.37,0H126.63L46.625,276.197h418.75L385.37,0z M148.101,28.572h215.797l63.455,219.052H84.647
		L148.101,28.572z" style="fill: rgb(75, 75, 75);"></path>
	<path class="st0" d="M291.231,316.274h-83.744c4.017,41.574-19.142,61.99-38.092,92.422
		c-20.318,32.618-15.467,77.597,2.539,103.304h154.849c18.011-25.707,22.861-70.686,2.544-103.304
		C310.373,378.264,287.213,357.848,291.231,316.274z" style="fill: rgb(75, 75, 75);"></path>
	<path class="st0" d="M431.004,311.121c-7.232,0-13.096,5.859-13.096,13.096s5.864,13.096,13.096,13.096
		c7.232,0,13.096-5.859,13.096-13.096S438.236,311.121,431.004,311.121z" style="fill: rgb(75, 75, 75);"></path>
	<path class="st0" d="M431.004,364.099c-7.232,0-13.096,5.859-13.096,13.095s5.864,13.096,13.096,13.096
		c7.232,0,13.096-5.859,13.096-13.096S438.236,364.099,431.004,364.099z" style="fill: rgb(75, 75, 75);"></path>
	<path class="st0" d="M431.004,417.076c-7.232,0-13.096,5.859-13.096,13.096s5.864,13.096,13.096,13.096
		c7.232,0,13.096-5.859,13.096-13.096S438.236,417.076,431.004,417.076z" style="fill: rgb(75, 75, 75);"></path>
</g>
</svg>
