<!--?xml version="1.0" encoding="utf-8"?-->
<!-- Generator: Adobe Illustrator 18.1.1, SVG Export Plug-In . SVG Version: 6.00 Build 0)  -->

<svg version="1.1" id="_x32_" xmlns="http://www.w3.org/2000/svg" xmlns:xlink="http://www.w3.org/1999/xlink" x="0px" y="0px" viewBox="0 0 512 512" style="width: 64px; height: 64px; opacity: 1;" xml:space="preserve">
<style type="text/css">
	.st0{fill:#4B4B4B;}
</style>
<g>
	<polygon class="st0" points="249.961,465.272 247.121,512 268.909,512 266.069,465.272 	" style="fill: rgb(75, 75, 75);"></polygon>
	<polygon class="st0" points="332.119,444.27 357.294,483.754 374.917,470.943 345.147,434.802 	" style="fill: rgb(75, 75, 75);"></polygon>
	<polygon class="st0" points="385.418,379.188 428.994,396.334 435.729,375.609 390.399,363.875 	" style="fill: rgb(75, 75, 75);"></polygon>
	<polygon class="st0" points="80.309,375.609 87.045,396.334 130.616,379.188 125.64,363.875 	" style="fill: rgb(75, 75, 75);"></polygon>
	<polygon class="st0" points="141.117,470.934 158.745,483.745 183.916,444.27 170.888,434.793 	" style="fill: rgb(75, 75, 75);"></polygon>
	<path class="st0" d="M306.348,70.571h-33.57V0h-33.565v70.571h-33.57c0,137.997-152.91,100.701-152.91,246.159h406.535
		C459.267,171.272,306.348,208.568,306.348,70.571z" style="fill: rgb(75, 75, 75);"></path>
	<path class="st0" d="M255.998,396.663c33.257,0,60.791-24.198,66.128-55.944h-132.26
		C195.202,372.465,222.74,396.663,255.998,396.663z" style="fill: rgb(75, 75, 75);"></path>
</g>
</svg>
